<?xml version="1.0" encoding="UTF-8"?>
<svg id="Layer_2" data-name="Layer 2" xmlns="http://www.w3.org/2000/svg" viewBox="0 0 1920 540">
  <defs>
    <style>
      .cls-1 {
        fill: #00b1ff;
      }

      .cls-2 {
        fill: #fff;
      }

      .cls-3 {
        fill: #033277;
      }
    </style>
  </defs>
  <g id="Layer_1-2" data-name="Layer 1">
    <rect class="cls-3" width="1920" height="540"/>
    <g>
      <g>
        <path class="cls-2" d="M553.5947466116,271.6662483337c4.7022354524,0,9.3042716956-.8744936582,13.8053034542-2.6259236942,4.4993943143-1.7489873163,8.556318416-4.1269749594,12.1699401363-7.1290774898,1.6380947367-1.399678397,3.143229712-2.9007296622,4.5188609633-4.5019324357l12.6943496037,10.055455709c-2.128646029,2.5013449887-4.4198120774,4.8023869607-6.8783835845,6.9031259161-5.5060566544,4.7046781721-11.6372212209,8.4041771813-18.4008487518,11.1058251867s-13.7478421969,4.0524720081-20.951422638,4.0524720081-13.7276058021-1.3508240027-19.570854723-4.0524720081-10.7018803547-6.4011470146-14.5770887678-11.1058251867c-3.8746111798-4.7010140925-6.6401281575-10.2056829715-8.2937190223-16.5091211974-1.6560335845-6.3034382259-1.8675846056-13.0563368795-.6405518205-20.2599173206,1.2272408274-7.204801801,3.7393222891-13.9577004546,7.5427672688-20.2611386805,3.80100226-6.3034382259,8.4372345318-11.781237188,13.905240778-16.4346182461,5.4690195639-4.6521596982,11.5840177303-8.3284528701,18.3476452612-11.0301008755,6.7636275309-2.7016480054,13.7478421969-4.0524720081,20.951422638-4.0524720081s13.7276058021,1.3508240027,19.570854723,4.0524720081c5.843248921,2.7016480054,10.7136778689,6.4035897343,14.6173936431,11.1058251867,1.7429064036,2.1007389554,3.2586992423,4.3517051732,4.5522639556,6.7528986536l-16.6921921973,9.0050862313c-.8130557604-1.099223872-1.6271248384-2.1996691038-2.4385431545-3.3013356955-2.5908863571-3.0021025304-5.8381102893-5.3776474538-9.741255712-7.1290774898-3.904782867-1.7489873163-8.2084866222-2.6259236942-12.9107220746-2.6259236942-4.8023869607,0-9.4304878453.8769363779-13.8798064055,2.6259236942-4.4509560044,1.751430036-8.4573882675,4.1269749594-12.0197128738,7.1290774898-3.5645592838,3.0008811705-6.5985221926,6.5794655538-9.107163357,10.7308677103-2.5076278467,4.1526235164-4.1702446562,8.6289073951-4.9884745552,13.4325157157-.8180218568,4.8023869607-.6807703204,9.2811135592.412586778,13.4312943559,1.0939543317,4.1538448763,2.9048372567,7.7556350968,5.4385475323,10.8065920215,2.5310595137,3.0521782846,5.7236307637,5.4545931248,9.5783378765,7.2035804411,3.8530696686,1.751430036,8.1828380652,2.6259236942,12.985225026,2.6259236942Z"/>
        <path class="cls-2" d="M660.6645777612,185.8205280108l35.4630708406,103.705665523h-19.3597751055l-22.676367645-64.2349789995-44.5607138849,64.2349789995h-19.3597751055l70.4935609002-103.705665523Z"/>
        <path class="cls-2" d="M762.2047722564,185.8205280108c4.4091090865,0,8.4284242475.8256392639,12.0581535252,2.4756964317,3.6282998756,1.6512785277,6.6549148584,3.9022447456,9.0771941865,6.7541200135,2.4210579682,2.8518752679,4.1346299208,6.1788595204,5.1419372178,9.9809527577,1.0058778949,3.8033145971,1.1341328739,7.9046409995.3843488526,12.3064219269-.7499920635,4.4030022873-2.2775925402,8.5311986065-4.5846200233,12.3809248782-2.3076516096,3.8533903513-5.1595030157,7.230450358-8.5543328585,10.1311800202-3.3976886468,2.9031723819-7.1896979182,5.2029929941-11.3815373801,6.9031259161-4.1922555463,1.7025756417-8.4894683787,2.5514207429-12.8912493061,2.5514207429h-24.9132983787l-6.8512451139,40.221822836h-17.7097179376l9.8934459307-58.0817680361h42.4727890538c2.000587447,0,3.9400490538-.3725147566,5.8183848204-1.1175442699,1.8761010891-.7462508731,3.5765161327-1.7660863543,5.0990104532-3.0607278036,1.5200516008-1.2946414492,2.8012347445-2.7859218356,3.8394961605-4.4787265984,1.0382614159-1.6928047629,1.7281678615-3.5346154284,2.067276617-5.5254319965.3218412544-1.8894437.255229184-3.7068271683-.197809576-5.4497076854-.4536628865-1.7392164375-1.2222300956-3.2573667407-2.3012322721-4.5520081899-1.0816529384-1.2934200894-2.4344294971-2.3144769305-4.0565110828-3.0595064437-1.6243162633-.7462508731-3.4364560552-1.1212083494-5.4370435022-1.1212083494h-42.6230163163l2.9398440637-17.2590361501h42.7097328662Z"/>
        <path class="cls-2" d="M804.5896234004,185.8205280108h17.7097179376l-17.6648616124,103.705665523h-17.7097179376l17.6648616124-103.705665523Z"/>
        <path class="cls-2" d="M898.1019074019,203.380018686h-24.9132983787l-14.6738391721,86.1461748479h-17.7097179376l14.6738391721-86.1461748479h-24.9132983787l2.9910224402-17.5594906751h67.5363146951l-2.9910224402,17.5594906751Z"/>
        <path class="cls-2" d="M934.2589567798,185.8205280108l35.4630708406,103.705665523h-19.3597751055l-22.676367645-64.2349789995-44.5607138849,64.2349789995h-19.3597751055l70.4935609002-103.705665523Z"/>
        <path class="cls-2" d="M1049.0063961985,271.6662483337l-3.0422008168,17.8599452001h-70.5384172255l17.6648616124-103.705665523h17.7097179376l-14.6226607955,85.8457203228h52.8286992878Z"/>
        <path class="cls-1" d="M1143.171339091,185.8205280108l-3.0422008168,17.8599452001h-50.1270512825l-4.0391389495,23.7127016385h50.1270512825l-2.9910224402,17.5594906751h-50.1270512825l-7.5924994058,44.5735280092h-18.0101724626l17.6648616124-103.705665523h68.1372237451Z"/>
        <path class="cls-1" d="M1214.8450804058,271.6662483337l-3.0422008168,17.8599452001h-70.5384172255l17.6648616124-103.705665523h17.7097179376l-14.6226607955,85.8457203228h52.8286992878Z"/>
        <path class="cls-1" d="M1313.8210476294,203.380018686h-73.9899801835l2.9910224402-17.5594906751h73.9899801835l-2.9910224402,17.5594906751ZM1306.3306969347,247.353859005h-73.9899801835l2.9910224402-17.5594906751h73.9899801835l-2.9910224402,17.5594906751ZM1225.1572282738,289.5261935338l3.0422008168-17.8599452001h73.9899801835l-3.0422008168,17.8599452001h-73.9899801835Z"/>
        <path class="cls-1" d="M1362.8054394535,221.5391970512l29.3474348024-35.7186690404h21.1612808957l-43.0385793682,51.7783298102,25.6741722808,51.9273357128h-21.3115081582l-17.2780965053-36.0191235654-29.8480736066,36.0191235654h-21.0110536332l42.9137332518-51.9273357128-25.0986443769-51.7783298102h21.0110536332l17.4782807845,35.7186690404Z"/>
      </g>
      <g>
        <path class="cls-2" d="M524.8569335938,338.9636516767l-12.578125-21.7880859375h5.4130859375l9.5068359375,16.4658203125,9.5302734375-16.4658203125h5.435546875l-12.599609375,21.7880859375v14.6015625h-4.7080078125v-14.6015625Z"/>
        <path class="cls-2" d="M555.1284179688,328.2517376142c3.578125,0,6.6298828125,1.265625,9.154296875,3.7978515625s3.787109375,5.587890625,3.787109375,9.166015625-1.2626953125,6.6337890625-3.787109375,9.1650390625c-2.5244140625,2.533203125-5.576171875,3.798828125-9.154296875,3.798828125-3.5634765625,0-6.611328125-1.265625-9.1435546875-3.798828125-2.5322265625-2.53125-3.7978515625-5.5869140625-3.7978515625-9.1650390625s1.265625-6.6337890625,3.7978515625-9.166015625,5.580078125-3.7978515625,9.1435546875-3.7978515625ZM549.3852539063,335.4841594892c-1.583984375,1.591796875-2.376953125,3.501953125-2.376953125,5.7314453125,0,2.244140625.79296875,4.154296875,2.376953125,5.7314453125s3.4990234375,2.365234375,5.7431640625,2.365234375c2.2431640625,0,4.158203125-.7880859375,5.7421875-2.365234375,1.5849609375-1.5771484375,2.376953125-3.4873046875,2.376953125-5.7314453125,0-2.2294921875-.7919921875-4.1396484375-2.376953125-5.7314453125-1.583984375-1.591796875-3.4990234375-2.388671875-5.7421875-2.388671875-2.244140625,0-4.1591796875.796875-5.7431640625,2.388671875Z"/>
        <path class="cls-2" d="M583.4448242188,353.8835735517c-2.95703125,0-5.337890625-.90234375-7.1416015625-2.7060546875-1.8046875-1.8046875-2.7294921875-4.0634765625-2.775390625-6.7783203125v-14.2373046875h4.7314453125v14.0556640625c0,1.349609375.4921875,2.509765625,1.4775390625,3.4794921875.986328125.970703125,2.2138671875,1.4560546875,3.6845703125,1.4560546875,1.349609375,0,2.521484375-.4814453125,3.5146484375-1.4443359375.9921875-.962890625,1.4892578125-2.126953125,1.4892578125-3.4912109375v-14.0556640625h4.7080078125v14.2373046875c-.0458984375,2.71484375-.962890625,4.9736328125-2.751953125,6.7783203125-1.8046875,1.8037109375-4.1162109375,2.7060546875-6.9365234375,2.7060546875Z"/>
        <path class="cls-2" d="M604.6635742188,333.3230266767c1.7587890625-2.3798828125,3.919921875-3.630859375,6.482421875-3.751953125v4.8896484375c-1.7138671875.0908203125-3.078125.64453125-4.09375,1.66015625-1.5322265625,1.5166015625-2.328125,3.3203125-2.388671875,5.4130859375v12.03125h-4.7080078125v-23.4033203125h4.7080078125v3.1611328125Z"/>
        <path class="cls-2" d="M642.1918945313,321.8835735517v31.681640625h-4.7314453125v-31.681640625h-8.4833984375v-4.7080078125h21.6982421875v4.7080078125h-8.4833984375Z"/>
        <path class="cls-2" d="M658.9077148438,333.3230266767c1.7587890625-2.3798828125,3.919921875-3.630859375,6.482421875-3.751953125v4.8896484375c-1.7138671875.0908203125-3.078125.64453125-4.09375,1.66015625-1.5322265625,1.5166015625-2.328125,3.3203125-2.388671875,5.4130859375v12.03125h-4.7080078125v-23.4033203125h4.7080078125v3.1611328125Z"/>
        <path class="cls-2" d="M680.3325195313,353.8835735517c-2.95703125,0-5.337890625-.90234375-7.1416015625-2.7060546875-1.8046875-1.8046875-2.7294921875-4.0634765625-2.775390625-6.7783203125v-14.2373046875h4.7314453125v14.0556640625c0,1.349609375.4921875,2.509765625,1.4775390625,3.4794921875.986328125.970703125,2.2138671875,1.4560546875,3.6845703125,1.4560546875,1.349609375,0,2.521484375-.4814453125,3.5146484375-1.4443359375.9921875-.962890625,1.4892578125-2.126953125,1.4892578125-3.4912109375v-14.0556640625h4.7080078125v14.2373046875c-.0458984375,2.71484375-.962890625,4.9736328125-2.751953125,6.7783203125-1.8046875,1.8037109375-4.1162109375,2.7060546875-6.9365234375,2.7060546875Z"/>
        <path class="cls-2" d="M701.5756835938,348.5388469892c.560546875.5458984375,1.2275390625.818359375,2.0009765625.818359375s1.4365234375-.2724609375,1.990234375-.818359375.830078125-1.220703125.830078125-2.0244140625c0-.7734375-.2724609375-1.4326171875-.818359375-1.978515625-.3798828125-.37890625-1.1904296875-.962890625-2.43359375-1.7509765625-1.6982421875-.9248046875-2.904296875-1.744140625-3.6162109375-2.45703125-1.244140625-1.2421875-1.865234375-2.736328125-1.865234375-4.48046875,0-1.7578125.62109375-3.263671875,1.865234375-4.5146484375,1.2431640625-1.25,2.744140625-1.8759765625,4.5029296875-1.8759765625s3.2216796875.591796875,4.3896484375,1.7744140625c.833984375.833984375,1.3642578125,1.7666015625,1.591796875,2.796875l-4.5712890625,1.3193359375c-.1064453125-.37890625-.212890625-.62890625-.318359375-.75-.2734375-.2734375-.63671875-.41015625-1.091796875-.41015625s-.845703125.1630859375-1.1708984375.4892578125c-.3271484375.326171875-.4892578125.716796875-.4892578125,1.1708984375,0,.455078125.1591796875.841796875.4775390625,1.16015625.2880859375.2734375.939453125.7353515625,1.9560546875,1.3876953125,1.8798828125,1.03125,3.244140625,1.970703125,4.09375,2.8203125,1.470703125,1.486328125,2.2060546875,3.251953125,2.2060546875,5.298828125,0,2.0927734375-.7314453125,3.8779296875-2.1943359375,5.3564453125-1.4638671875,1.478515625-3.2412109375,2.2177734375-5.333984375,2.2177734375-2.0771484375,0-3.8515625-.7431640625-5.322265625-2.2294921875-1.015625-1.015625-1.6826171875-2.28125-2.0009765625-3.7978515625l4.685546875-1.0009765625c.1357421875.6982421875.3486328125,1.1904296875.63671875,1.478515625Z"/>
        <path class="cls-2" d="M720.0883789063,330.1618938642v-8.779296875h4.7080078125v8.779296875h4.20703125v4.7080078125h-4.20703125v18.6953125h-4.7080078125v-18.6953125h-4.2080078125v-4.7080078125h4.2080078125Z"/>
        <path class="cls-2" d="M741.7631835938,348.2663860517c.7880859375.697265625,2.220703125,1.0458984375,4.298828125,1.0458984375,2.2431640625,0,4.162109375-.7880859375,5.75390625-2.365234375.197265625-.212890625.5986328125-.6826171875,1.205078125-1.41015625l4.7080078125,1.6826171875c-1.15234375,1.591796875-1.986328125,2.646484375-2.501953125,3.1611328125-2.5322265625,2.533203125-5.5869140625,3.798828125-9.1650390625,3.798828125-3.5634765625,0-6.611328125-1.265625-9.1435546875-3.798828125-2.5322265625-2.53125-3.7978515625-5.5869140625-3.7978515625-9.1650390625s1.265625-6.6337890625,3.7978515625-9.166015625,5.580078125-3.7978515625,9.1435546875-3.7978515625c3.0625,0,5.74609375.9248046875,8.05078125,2.7744140625.37890625.318359375.7509765625.6591796875,1.1142578125,1.0234375.15234375.1513671875.583984375.6298828125,1.296875,1.4326171875l-2.365234375,2.388671875-12.3955078125,12.3955078125ZM749.6323242188,333.7097454267c-.5302734375-.4091796875-1.720703125-.6142578125-3.5703125-.6142578125-2.2294921875,0-4.1357421875.79296875-5.720703125,2.376953125-1.583984375,1.5849609375-2.3759765625,3.4990234375-2.3759765625,5.7431640625,0,1.8349609375.2041015625,3.0244140625.6142578125,3.5703125l11.052734375-11.076171875Z"/>
        <path class="cls-2" d="M783.4975585938,331.7771282392v-14.6015625h4.73046875v36.3896484375h-4.73046875v-2.9111328125c-2.2744140625,2.3505859375-4.9208984375,3.525390625-7.9375,3.525390625-3.5791015625,0-6.6298828125-1.265625-9.154296875-3.798828125-2.5244140625-2.53125-3.787109375-5.5869140625-3.787109375-9.1650390625s1.2626953125-6.6337890625,3.787109375-9.166015625,5.5751953125-3.7978515625,9.154296875-3.7978515625c3.0166015625,0,5.6630859375,1.1748046875,7.9375,3.525390625ZM783.4975585938,342.9665813642v-3.4794921875c-.2724609375-1.470703125-1.0087890625-2.8046875-2.2060546875-4.0029296875-1.5771484375-1.591796875-3.4873046875-2.388671875-5.7314453125-2.388671875s-4.158203125.796875-5.7431640625,2.388671875c-1.583984375,1.591796875-2.3759765625,3.501953125-2.3759765625,5.7314453125,0,2.244140625.7919921875,4.154296875,2.3759765625,5.7314453125,1.5849609375,1.5771484375,3.4990234375,2.365234375,5.7431640625,2.365234375s4.154296875-.7880859375,5.7314453125-2.365234375c1.197265625-1.1982421875,1.93359375-2.5244140625,2.2060546875-3.98046875Z"/>
        <path class="cls-2" d="M815.8618164063,341.9206829267v11.64453125h-4.7080078125v-36.3896484375h10.326171875c2.92578125.39453125,5.3974609375,1.599609375,7.4140625,3.6162109375,2.4111328125,2.42578125,3.6162109375,5.3369140625,3.6162109375,8.7333984375,0,3.4267578125-1.205078125,6.349609375-3.6162109375,8.767578125-2.41015625,2.4189453125-5.3212890625,3.6279296875-8.7333984375,3.6279296875h-4.298828125ZM815.8618164063,321.9060344892v15.2841796875h4.298828125c2.0927734375,0,3.8857421875-.7470703125,5.37890625-2.240234375,1.4931640625-1.494140625,2.240234375-3.3017578125,2.240234375-5.4248046875,0-2.107421875-.7470703125-3.904296875-2.240234375-5.390625-1.4931640625-1.4853515625-3.2861328125-2.228515625-5.37890625-2.228515625h-4.298828125Z"/>
        <path class="cls-2" d="M855.3911132813,331.7995891767v-1.6376953125h4.73046875v23.42578125h-4.73046875v-2.93359375c-2.2744140625,2.3505859375-4.9130859375,3.525390625-7.9150390625,3.525390625-3.5791015625,0-6.6298828125-1.2626953125-9.154296875-3.787109375s-3.787109375-5.5751953125-3.787109375-9.154296875c0-3.578125,1.2626953125-6.6298828125,3.787109375-9.154296875s5.5751953125-3.787109375,9.154296875-3.787109375c3.001953125,0,5.640625,1.16796875,7.9150390625,3.5029296875ZM855.3911132813,342.9665813642v-3.45703125c-.2734375-1.470703125-1.0009765625-2.8046875-2.18359375-4.0029296875-1.591796875-1.5771484375-3.5029296875-2.365234375-5.7314453125-2.365234375-2.244140625,0-4.158203125.7880859375-5.7431640625,2.365234375-1.583984375,1.5771484375-2.3759765625,3.4873046875-2.3759765625,5.7314453125,0,2.228515625.7919921875,4.1357421875,2.3759765625,5.7197265625,1.5849609375,1.5849609375,3.4990234375,2.376953125,5.7431640625,2.376953125,2.228515625,0,4.1396484375-.7880859375,5.7314453125-2.365234375,1.1826171875-1.197265625,1.91015625-2.5322265625,2.18359375-4.0029296875Z"/>
        <path class="cls-2" d="M871.6743164063,333.3230266767c1.7587890625-2.3798828125,3.919921875-3.630859375,6.482421875-3.751953125v4.8896484375c-1.7138671875.0908203125-3.078125.64453125-4.09375,1.66015625-1.5322265625,1.5166015625-2.328125,3.3203125-2.388671875,5.4130859375v12.03125h-4.7080078125v-23.4033203125h4.7080078125v3.1611328125Z"/>
        <path class="cls-2" d="M886.4809570313,330.1618938642v-8.779296875h4.7080078125v8.779296875h4.20703125v4.7080078125h-4.20703125v18.6953125h-4.7080078125v-18.6953125h-4.2080078125v-4.7080078125h4.2080078125Z"/>
        <path class="cls-2" d="M905.6088867188,336.4392376142v17.1259765625h-4.7314453125v-23.4033203125h4.7314453125v2.7294921875c.9853515625-2.6689453125,2.9638671875-4.0029296875,5.935546875-4.0029296875,2.5322265625,0,4.544921875.8984375,6.0390625,2.6953125,1.4931640625,1.796875,2.2626953125,4.0517578125,2.3076171875,6.765625v15.2158203125h-4.70703125v-15.033203125c0-1.349609375-.4931640625-2.505859375-1.478515625-3.46875-.986328125-.962890625-2.1611328125-1.4443359375-3.525390625-1.4443359375-1.349609375,0-2.517578125.470703125-3.5029296875,1.41015625-.5458984375.5615234375-.90234375,1.03125-1.068359375,1.41015625Z"/>
        <path class="cls-2" d="M934.0610351563,348.2663860517c.7880859375.697265625,2.220703125,1.0458984375,4.298828125,1.0458984375,2.2431640625,0,4.162109375-.7880859375,5.75390625-2.365234375.197265625-.212890625.5986328125-.6826171875,1.205078125-1.41015625l4.7080078125,1.6826171875c-1.15234375,1.591796875-1.986328125,2.646484375-2.501953125,3.1611328125-2.5322265625,2.533203125-5.5869140625,3.798828125-9.1650390625,3.798828125-3.5634765625,0-6.611328125-1.265625-9.1435546875-3.798828125-2.5322265625-2.53125-3.7978515625-5.5869140625-3.7978515625-9.1650390625s1.265625-6.6337890625,3.7978515625-9.166015625,5.580078125-3.7978515625,9.1435546875-3.7978515625c3.0625,0,5.74609375.9248046875,8.05078125,2.7744140625.37890625.318359375.7509765625.6591796875,1.1142578125,1.0234375.15234375.1513671875.583984375.6298828125,1.296875,1.4326171875l-2.365234375,2.388671875-12.3955078125,12.3955078125ZM941.9301757813,333.7097454267c-.5302734375-.4091796875-1.720703125-.6142578125-3.5703125-.6142578125-2.2294921875,0-4.1357421875.79296875-5.720703125,2.376953125-1.583984375,1.5849609375-2.3759765625,3.4990234375-2.3759765625,5.7431640625,0,1.8349609375.2041015625,3.0244140625.6142578125,3.5703125l11.052734375-11.076171875Z"/>
        <path class="cls-2" d="M960.1928710938,333.3230266767c1.7583007812-2.3798828125,3.9204101562-3.630859375,6.4829101562-3.751953125v4.8896484375c-1.71484375.0908203125-3.078125.64453125-4.09375,1.66015625-1.533203125,1.5166015625-2.3286132812,3.3203125-2.3891601562,5.4130859375v12.03125h-4.7080078125v-23.4033203125h4.7080078125v3.1611328125Z"/>
        <path class="cls-2" d="M992.80859375,334.8474407392v18.740234375h-4.73046875v-18.740234375h-2.09375v-4.7080078125h2.09375v-4.2080078125c.10546875-1.9404296875.84765625-3.6083984375,2.228515625-5.0029296875,1.423828125-1.3349609375,3.078125-2.001953125,4.95703125-2.001953125.94140625,0,2.365234375.326171875,4.27734375.9775390625l-1.5703125,4.4580078125c-1.333984375-.560546875-2.17578125-.8408203125-2.5234375-.8408203125-.638671875,0-1.251953125.2646484375-1.84375.7958984375-.5.5-.765625,1.099609375-.794921875,1.796875v4.025390625h4.20703125v4.7080078125h-4.20703125Z"/>
        <path class="cls-2" d="M1012.708984375,328.2517376142c3.578125,0,6.62890625,1.265625,9.154296875,3.7978515625,2.5234375,2.5322265625,3.787109375,5.587890625,3.787109375,9.166015625s-1.263671875,6.6337890625-3.787109375,9.1650390625c-2.525390625,2.533203125-5.576171875,3.798828125-9.154296875,3.798828125-3.564453125,0-6.611328125-1.265625-9.14453125-3.798828125-2.53125-2.53125-3.796875-5.5869140625-3.796875-9.1650390625s1.265625-6.6337890625,3.796875-9.166015625c2.533203125-2.5322265625,5.580078125-3.7978515625,9.14453125-3.7978515625ZM1006.96484375,335.4841594892c-1.583984375,1.591796875-2.376953125,3.501953125-2.376953125,5.7314453125,0,2.244140625.79296875,4.154296875,2.376953125,5.7314453125s3.5,2.365234375,5.744140625,2.365234375c2.2421875,0,4.158203125-.7880859375,5.7421875-2.365234375s2.376953125-3.4873046875,2.376953125-5.7314453125c0-2.2294921875-.79296875-4.1396484375-2.376953125-5.7314453125s-3.5-2.388671875-5.7421875-2.388671875c-2.244140625,0-4.16015625.796875-5.744140625,2.388671875Z"/>
        <path class="cls-2" d="M1035.81640625,333.3230266767c1.7578125-2.3798828125,3.919921875-3.630859375,6.482421875-3.751953125v4.8896484375c-1.71484375.0908203125-3.078125.64453125-4.09375,1.66015625-1.533203125,1.5166015625-2.328125,3.3203125-2.388671875,5.4130859375v12.03125h-4.708984375v-23.4033203125h4.708984375v3.1611328125Z"/>
        <path class="cls-2" d="M1062.970703125,353.5652141767v-36.3896484375h4.708984375v31.6591796875h13.009765625v4.73046875h-17.71875Z"/>
        <path class="cls-2" d="M1096.291015625,328.2517376142c3.578125,0,6.630859375,1.265625,9.154296875,3.7978515625,2.525390625,2.5322265625,3.787109375,5.587890625,3.787109375,9.166015625s-1.26171875,6.6337890625-3.787109375,9.1650390625c-2.5234375,2.533203125-5.576171875,3.798828125-9.154296875,3.798828125-3.5625,0-6.611328125-1.265625-9.142578125-3.798828125-2.533203125-2.53125-3.798828125-5.5869140625-3.798828125-9.1650390625s1.265625-6.6337890625,3.798828125-9.166015625c2.53125-2.5322265625,5.580078125-3.7978515625,9.142578125-3.7978515625ZM1090.548828125,335.4841594892c-1.583984375,1.591796875-2.376953125,3.501953125-2.376953125,5.7314453125,0,2.244140625.79296875,4.154296875,2.376953125,5.7314453125s3.498046875,2.365234375,5.7421875,2.365234375,4.158203125-.7880859375,5.7421875-2.365234375c1.5859375-1.5771484375,2.376953125-3.4873046875,2.376953125-5.7314453125,0-2.2294921875-.791015625-4.1396484375-2.376953125-5.7314453125-1.583984375-1.591796875-3.498046875-2.388671875-5.7421875-2.388671875s-4.158203125.796875-5.7421875,2.388671875Z"/>
        <path class="cls-2" d="M1134.978515625,331.7995891767v-1.6376953125h4.73046875v23.42578125h-4.73046875v-2.93359375c-2.2734375,2.3505859375-4.912109375,3.525390625-7.9140625,3.525390625-3.580078125,0-6.630859375-1.2626953125-9.154296875-3.787109375-2.525390625-2.5244140625-3.787109375-5.5751953125-3.787109375-9.154296875,0-3.578125,1.26171875-6.6298828125,3.787109375-9.154296875,2.5234375-2.5244140625,5.57421875-3.787109375,9.154296875-3.787109375,3.001953125,0,5.640625,1.16796875,7.9140625,3.5029296875ZM1134.978515625,342.9665813642v-3.45703125c-.2734375-1.470703125-1-2.8046875-2.18359375-4.0029296875-1.591796875-1.5771484375-3.501953125-2.365234375-5.73046875-2.365234375-2.244140625,0-4.158203125.7880859375-5.744140625,2.365234375-1.583984375,1.5771484375-2.375,3.4873046875-2.375,5.7314453125,0,2.228515625.791015625,4.1357421875,2.375,5.7197265625,1.5859375,1.5849609375,3.5,2.376953125,5.744140625,2.376953125,2.228515625,0,4.138671875-.7880859375,5.73046875-2.365234375,1.18359375-1.197265625,1.91015625-2.5322265625,2.18359375-4.0029296875Z"/>
        <path class="cls-2" d="M1151.28515625,336.4392376142v17.1259765625h-4.73046875v-23.4033203125h4.73046875v2.7294921875c.986328125-2.6689453125,2.96484375-4.0029296875,5.935546875-4.0029296875,2.533203125,0,4.544921875.8984375,6.0390625,2.6953125s2.263671875,4.0517578125,2.30859375,6.765625v15.2158203125h-4.70703125v-15.033203125c0-1.349609375-.494140625-2.505859375-1.478515625-3.46875-.986328125-.962890625-2.162109375-1.4443359375-3.525390625-1.4443359375-1.349609375,0-2.517578125.470703125-3.50390625,1.41015625-.544921875.5615234375-.90234375,1.03125-1.068359375,1.41015625Z"/>
        <path class="cls-2" d="M1219.42578125,348.5847454267c-3.74609375,3.578125-8.029296875,5.3671875-12.849609375,5.3671875-5.140625,0-9.5234375-1.8115234375-13.146484375-5.435546875-3.625-3.6240234375-5.435546875-8.005859375-5.435546875-13.146484375,0-5.1240234375,1.810546875-9.5068359375,5.435546875-13.1455078125,3.623046875-3.638671875,8.005859375-5.4580078125,13.146484375-5.4580078125,4.8046875,0,9.361328125,1.962890625,13.66796875,5.890625l-3.525390625,3.2060546875c-3.244140625-2.8798828125-6.625-4.3212890625-10.142578125-4.3212890625-3.806640625,0-7.0625,1.349609375-9.76953125,4.048828125s-4.05859375,5.958984375-4.05859375,9.779296875c0,3.8369140625,1.3515625,7.1044921875,4.05859375,9.802734375,2.70703125,2.69921875,5.962890625,4.048828125,9.76953125,4.048828125,3.2734375,0,5.98828125-.8642578125,8.140625-2.5927734375v-10.9853515625h4.708984375v12.94140625Z"/>
        <path class="cls-2" d="M1236.416015625,353.8835735517c-2.95703125,0-5.337890625-.90234375-7.142578125-2.7060546875-1.8046875-1.8046875-2.728515625-4.0634765625-2.775390625-6.7783203125v-14.2373046875h4.732421875v14.0556640625c0,1.349609375.4921875,2.509765625,1.4765625,3.4794921875.986328125.970703125,2.21484375,1.4560546875,3.685546875,1.4560546875,1.349609375,0,2.521484375-.4814453125,3.513671875-1.4443359375s1.490234375-2.126953125,1.490234375-3.4912109375v-14.0556640625h4.70703125v14.2373046875c-.044921875,2.71484375-.962890625,4.9736328125-2.751953125,6.7783203125-1.8046875,1.8037109375-4.115234375,2.7060546875-6.935546875,2.7060546875Z"/>
        <path class="cls-2" d="M1258,321.4968548017c.650390625.63671875.9765625,1.41796875.9765625,2.3427734375s-.326171875,1.705078125-.9765625,2.341796875c-.65234375.6376953125-1.43359375.9560546875-2.34375.9560546875-.89453125,0-1.66796875-.318359375-2.318359375-.9560546875-.65234375-.63671875-.978515625-1.4169921875-.978515625-2.341796875s.326171875-1.7060546875.978515625-2.3427734375c.650390625-.63671875,1.423828125-.955078125,2.318359375-.955078125.91015625,0,1.69140625.318359375,2.34375.955078125ZM1258.021484375,330.1618938642v23.4033203125h-4.70703125v-23.4033203125h4.70703125Z"/>
        <path class="cls-2" d="M1285.541015625,331.7771282392v-14.6015625h4.73046875v36.3896484375h-4.73046875v-2.9111328125c-2.2734375,2.3505859375-4.919921875,3.525390625-7.9375,3.525390625-3.578125,0-6.62890625-1.265625-9.154296875-3.798828125-2.5234375-2.53125-3.787109375-5.5869140625-3.787109375-9.1650390625s1.263671875-6.6337890625,3.787109375-9.166015625c2.525390625-2.5322265625,5.576171875-3.7978515625,9.154296875-3.7978515625,3.017578125,0,5.6640625,1.1748046875,7.9375,3.525390625ZM1285.541015625,342.9665813642v-3.4794921875c-.271484375-1.470703125-1.0078125-2.8046875-2.205078125-4.0029296875-1.578125-1.591796875-3.48828125-2.388671875-5.732421875-2.388671875s-4.158203125.796875-5.7421875,2.388671875-2.376953125,3.501953125-2.376953125,5.7314453125c0,2.244140625.79296875,4.154296875,2.376953125,5.7314453125s3.498046875,2.365234375,5.7421875,2.365234375,4.154296875-.7880859375,5.732421875-2.365234375c1.197265625-1.1982421875,1.93359375-2.5244140625,2.205078125-3.98046875Z"/>
        <path class="cls-2" d="M1317.3828125,331.7995891767v-1.6376953125h4.73046875v23.42578125h-4.73046875v-2.93359375c-2.2734375,2.3505859375-4.912109375,3.525390625-7.9140625,3.525390625-3.580078125,0-6.630859375-1.2626953125-9.154296875-3.787109375-2.525390625-2.5244140625-3.787109375-5.5751953125-3.787109375-9.154296875,0-3.578125,1.26171875-6.6298828125,3.787109375-9.154296875,2.5234375-2.5244140625,5.57421875-3.787109375,9.154296875-3.787109375,3.001953125,0,5.640625,1.16796875,7.9140625,3.5029296875ZM1317.3828125,342.9665813642v-3.45703125c-.2734375-1.470703125-1-2.8046875-2.18359375-4.0029296875-1.591796875-1.5771484375-3.501953125-2.365234375-5.73046875-2.365234375-2.244140625,0-4.158203125.7880859375-5.744140625,2.365234375-1.583984375,1.5771484375-2.375,3.4873046875-2.375,5.7314453125,0,2.228515625.791015625,4.1357421875,2.375,5.7197265625,1.5859375,1.5849609375,3.5,2.376953125,5.744140625,2.376953125,2.228515625,0,4.138671875-.7880859375,5.73046875-2.365234375,1.18359375-1.197265625,1.91015625-2.5322265625,2.18359375-4.0029296875Z"/>
        <path class="cls-2" d="M1333.689453125,336.4392376142v17.1259765625h-4.73046875v-23.4033203125h4.73046875v2.7294921875c.986328125-2.6689453125,2.96484375-4.0029296875,5.935546875-4.0029296875,2.533203125,0,4.544921875.8984375,6.0390625,2.6953125s2.263671875,4.0517578125,2.30859375,6.765625v15.2158203125h-4.70703125v-15.033203125c0-1.349609375-.494140625-2.505859375-1.478515625-3.46875-.986328125-.962890625-2.162109375-1.4443359375-3.525390625-1.4443359375-1.349609375,0-2.517578125.470703125-3.50390625,1.41015625-.544921875.5615234375-.90234375,1.03125-1.068359375,1.41015625Z"/>
        <path class="cls-2" d="M1373.400390625,345.5368938642l4.70703125,1.6826171875c-1.15234375,1.591796875-1.986328125,2.646484375-2.501953125,3.1611328125-2.53125,2.533203125-5.5859375,3.798828125-9.1640625,3.798828125-3.564453125,0-6.611328125-1.265625-9.14453125-3.798828125-2.53125-2.53125-3.796875-5.5869140625-3.796875-9.1650390625s1.265625-6.6337890625,3.796875-9.166015625c2.533203125-2.5322265625,5.580078125-3.7978515625,9.14453125-3.7978515625,3.578125,0,6.6328125,1.265625,9.1640625,3.7978515625.515625.515625,1.349609375,1.5546875,2.501953125,3.1162109375l-4.70703125,1.728515625c-.607421875-.7431640625-1.015625-1.220703125-1.228515625-1.4326171875-1.576171875-1.5771484375-3.48828125-2.3662109375-5.73046875-2.3662109375-2.23046875,0-4.13671875.79296875-5.720703125,2.376953125-1.583984375,1.5849609375-2.376953125,3.4990234375-2.376953125,5.7431640625,0,2.228515625.79296875,4.1357421875,2.376953125,5.7197265625,1.583984375,1.5849609375,3.490234375,2.376953125,5.720703125,2.376953125,2.2421875,0,4.162109375-.7880859375,5.75390625-2.365234375.197265625-.212890625.59765625-.6826171875,1.205078125-1.41015625Z"/>
        <path class="cls-2" d="M1390.845703125,348.2663860517c.787109375.697265625,2.220703125,1.0458984375,4.298828125,1.0458984375,2.2421875,0,4.162109375-.7880859375,5.75390625-2.365234375.197265625-.212890625.59765625-.6826171875,1.205078125-1.41015625l4.70703125,1.6826171875c-1.15234375,1.591796875-1.986328125,2.646484375-2.501953125,3.1611328125-2.53125,2.533203125-5.5859375,3.798828125-9.1640625,3.798828125-3.564453125,0-6.611328125-1.265625-9.14453125-3.798828125-2.53125-2.53125-3.796875-5.5869140625-3.796875-9.1650390625s1.265625-6.6337890625,3.796875-9.166015625c2.533203125-2.5322265625,5.580078125-3.7978515625,9.14453125-3.7978515625,3.0625,0,5.74609375.9248046875,8.05078125,2.7744140625.37890625.318359375.75.6591796875,1.11328125,1.0234375.15234375.1513671875.583984375.6298828125,1.296875,1.4326171875l-2.365234375,2.388671875-12.39453125,12.3955078125ZM1398.71484375,333.7097454267c-.53125-.4091796875-1.720703125-.6142578125-3.5703125-.6142578125-2.23046875,0-4.13671875.79296875-5.720703125,2.376953125-1.583984375,1.5849609375-2.376953125,3.4990234375-2.376953125,5.7431640625,0,1.8349609375.205078125,3.0244140625.615234375,3.5703125l11.052734375-11.076171875Z"/>
      </g>
      <rect class="cls-2" x="506.6858448485" y="302.9285005346" width="906.628310303" height="4.9069060034"/>
    </g>
  </g>
</svg>